<?xml version="1.0" encoding="UTF-8" standalone="no"?>
<svg width="120px" height="120px" viewBox="0 0 120 120" version="1.1" xmlns="http://www.w3.org/2000/svg" xmlns:xlink="http://www.w3.org/1999/xlink" xmlns:sketch="http://www.bohemiancoding.com/sketch/ns">
    <title>Chatter Feed Icon</title>
    <defs>
        <path id="path-1" d="M61.6444209,95.9636865 C57.3017982,95.4083037 56.8037234,89.0310142 56.7847692,88.759731 C56.6942101,87.4738063 54.7808868,63.8636299 53.346684,47.6742219 C51.3122643,58.9452882 48.8429504,72.8640351 48.0489792,78.3559163 C47.8067863,80.0284729 46.488415,81.3272142 44.8341326,81.5258703 C43.1756383,81.7277306 41.5992789,80.7718314 40.9801076,79.201807 C40.6726281,78.422135 39.5817073,76.591508 38.3875914,74.9627411 C36.7459452,74.6113547 32.186402,74.6145589 28.0154203,74.9958505 C25.9746825,75.1635334 24.1971977,73.6618638 24.0150266,71.6069475 C23.8328555,69.5498951 25.3281329,67.7342207 27.3551816,67.548381 C36.5511379,66.7110347 40.3925268,67.4864345 42.1889658,68.4284491 C44.6309013,54.0974373 48.8492685,31.2071225 49.0725071,29.9991649 C49.1030445,29.8325501 49.145165,29.6670033 49.1988686,29.5046607 C50.6425485,25.1107284 53.3888045,24.9067321 54.5018385,25.0210128 C58.4674828,25.4343457 59.0403215,30.3708442 59.3825505,33.3207812 C60.1554615,39.9885787 62.1888283,64.2758948 63.3313466,78.2309552 C66.2187063,68.5779753 69.8589698,56.1726465 70.1548663,54.8589526 C70.6550471,52.4857592 71.590122,48.0608538 75.3283157,48.0608538 C76.9583787,48.0768744 79.0001695,48.9131527 79.7435962,52.8051043 C79.9773649,54.0312186 80.3027457,55.9163159 80.666035,58.0214303 C81.2030712,61.1369141 82.124457,66.4771331 82.6815005,68.9272256 C84.1472936,69.0938404 86.8556412,69.0051928 88.6046947,68.9507226 C89.8693624,68.9101369 91.1361362,68.8684832 92.314457,68.8684832 C94.3499297,68.8684832 96,70.5431759 96,72.6066365 C96,74.6711652 94.3499297,76.3447898 92.314457,76.3447898 C91.2109001,76.3447898 90.0252082,76.3843075 88.8395164,76.422757 C82.8657777,76.616073 77.6996993,76.7826878 76.124393,72.7935442 C75.7274073,71.7863789 75.275665,69.7474832 74.6101613,66.132155 C71.8502161,75.5640498 67.8961549,88.7714795 66.9852993,91.5451893 C65.7574869,95.2812065 63.6472503,95.998932 62.2067295,96 C62.0045511,96 61.8171149,95.9850474 61.6444209,95.9636865 Z"></path>
    </defs>
    <g id="Page-1" stroke="none" stroke-width="1" fill="none" fill-rule="evenodd" sketch:type="MSPage">
        <path d="M108,120 L12,120 C5.373,120 0,114.627 0,108 L0,12 C0,5.373 5.373,0 12,0 L108,0 C114.627,0 120,5.373 120,12 L120,108 C120,114.627 114.627,120 108,120 Z" id="Shape" fill="#62B8EB" sketch:type="MSShapeGroup"></path>
        <mask id="mask-2" sketch:name="Clip 2" fill="white">
            <use xlink:href="#path-1"></use>
        </mask>
        <use id="Clip-2" fill="#FFFFFF" sketch:type="MSShapeGroup" xlink:href="#path-1"></use>
    </g>
</svg>