<?xml version="1.0" encoding="UTF-8" standalone="no"?>
<svg width="120px" height="120px" viewBox="0 0 120 120" version="1.1" xmlns="http://www.w3.org/2000/svg" xmlns:xlink="http://www.w3.org/1999/xlink" xmlns:sketch="http://www.bohemiancoding.com/sketch/ns">
    <!-- Generator: Sketch 3.3.2 (12043) - http://www.bohemiancoding.com/sketch -->
    <title>icon_tabset</title>
    <desc>Created with Sketch.</desc>
    <defs></defs>
    <g id="Page-1" stroke="none" stroke-width="1" fill="none" fill-rule="evenodd" sketch:type="MSPage">
        <g id="icon_lightning_component_w_tile-+-Shape-+-Path-1-Copy-7" sketch:type="MSLayerGroup">
            <path d="M120,108 C120,114.6 114.6,120 108,120 L12,120 C5.4,120 0,114.6 0,108 L0,12 C0,5.4 5.4,0 12,0 L108,0 C114.6,0 120,5.4 120,12 L120,108 L120,108 Z" id="Shape" fill="#F5A623" sketch:type="MSShapeGroup"></path>
            <g id="icon_lightning_component_w_tile-+-Path-1" fill="#FFFFFF" sketch:type="MSShapeGroup">
                <path d="M57,42 L93.0033657,42 C96.3152154,42 99,44.6811374 99,48.0021239 L99,93.9978761 C99,97.3127576 96.3153812,100 93.0033657,100 L24.9966343,100 C21.6847846,100 19,97.3188626 19,93.9978761 L19,62.0004844 L19,26.001155 C19,22.6868086 21.6872263,20 25.0002441,20 L50.9997559,20 C54.3135992,20 57,22.6839627 57,26.001155 L57,42 Z" id="Rectangle-759"></path>
                <path d="M62,25.9935641 C62,22.68341 64.6907526,20 68.0064114,20 L92.9935886,20 C96.310838,20 99,22.6937005 99,25.9935641 L99,37 L80.5163105,37 L62,37 L62,25.9935641 Z" id="Rectangle-760" fill-opacity="0.7"></path>
            </g>
        </g>
    </g>
</svg>