<?xml version="1.0" encoding="UTF-8" standalone="no"?>
<svg width="323px" height="265px" viewBox="0 0 323 265" version="1.1" xmlns="http://www.w3.org/2000/svg" xmlns:xlink="http://www.w3.org/1999/xlink" xmlns:sketch="http://www.bohemiancoding.com/sketch/ns">
    <!-- Generator: Sketch 3.3.2 (12043) - http://www.bohemiancoding.com/sketch -->
    <title>Path 467 + Path 467 Copy + Imported Layers</title>
    <desc>Created with Sketch.</desc>
    <defs></defs>
    <g id="Page-1" stroke="none" stroke-width="1" fill="none" fill-rule="evenodd" sketch:type="MSPage">
        <g id="M+A_Prin" sketch:type="MSArtboardGroup" transform="translate(-317.000000, -2028.000000)">
            <g id="Path-467-+-Path-467-Copy-+-Imported-Layers" sketch:type="MSLayerGroup" transform="translate(317.000000, 2028.000000)">
                <path d="M106.94204,178.923267 C106.94204,178.923267 97.3033677,198.436939 106.422508,200.563892 C115.541649,202.690846 131.994774,206.511158 131.994774,206.511158 L153.227196,196.071705 L126.764305,188.841236 L131.799461,168.782642 L106.94204,178.923267 Z" id="Path-467" fill="#D2D5D4" sketch:type="MSShapeGroup"></path>
                <path d="M110.021675,176.923267 C110.021675,176.923267 100.383003,196.436939 109.502144,198.563892 C118.621285,200.690846 135.07441,204.511158 135.07441,204.511158 L156.306831,194.071705 L129.843941,186.841236 L134.879097,166.782642 L110.021675,176.923267 Z" id="Path-467-Copy" fill="#B4B4B4" sketch:type="MSShapeGroup"></path>
                <g id="Imported-Layers" transform="translate(0.000000, 0.425221)" sketch:type="MSShapeGroup">
                    <path d="M218.503606,146.002044 L42.9024161,214.458022 C40.1639891,215.525089 37.2086569,213.507556 37.2086569,210.571356 L37.2086569,76.1044667 C37.2086569,74.3860889 38.2637117,72.8432 39.8669234,72.2178 L215.468113,3.76182222 C218.205361,2.69475556 221.161872,4.71228889 221.161872,7.64848889 L221.161872,142.115378 C221.161872,143.833756 220.106818,145.376644 218.503606,146.002044" id="Fill-1" fill="#000000"></path>
                    <path d="M213.702223,142.325022 L51.8532883,203.428133 C49.0264489,204.496378 45.9744526,202.478844 45.9744526,199.541467 L45.9744526,79.7814889 C45.9744526,78.0619333 47.0636934,76.5190444 48.7187737,75.8948222 L210.566529,14.7917111 C213.394547,13.7234667 216.446544,15.741 216.446544,18.6772 L216.446544,138.438356 C216.446544,140.157911 215.356124,141.7008 213.702223,142.325022" id="Fill-2" fill="#231F1F"></path>
                    <path d="M17.4891533,49.3206222 L14.9782409,48.0980889 L14.9888504,47.6104889 L17.4985839,48.8342 L17.4891533,49.3206222" id="Fill-3" fill="#000000"></path>
                    <path d="M23.6685912,47.7954 L18.5901825,52.5618667 L23.7086715,55.0092889 L23.6968832,55.5946444 L17.9029234,52.7420667 L17.9158905,52.1567111 L22.9931204,47.3914222 L18.1646241,45.0464667 L18.1752336,44.5588667 L23.6803796,47.2112222 L23.6685912,47.7954" id="Fill-4" fill="#000000"></path>
                    <path d="M60.3019781,200.086778 C57.2782737,201.265733 54.0129088,199.037378 54.0129088,195.793778 L54.0129088,81.1147333 C54.0129088,79.2173333 55.1787737,77.5130889 56.9493796,76.8229111 L207.499208,18.1330667 C210.522912,16.9541111 213.787099,19.1824667 213.787099,22.4248889 L213.787099,137.103933 C213.787099,139.002511 212.622412,140.706756 210.851807,141.396933 L60.3019781,200.086778 Z" id="Fill-5" fill="#E2E5EA"></path>
                    <path d="M39.8669234,72.2178 L34.7130693,69.9081778 L211.375208,0.433422222 L215.818226,3.64404444 L39.8669234,72.2178" id="Fill-6" fill="#D2D5D4"></path>
                    <path d="M37.2086569,210.571356 C36.6487117,206.611667 37.2086569,76.1044667 37.2086569,76.1044667 C37.2086569,76.1044667 37.3807664,73.1859333 39.8669234,72.2178 C42.3519015,71.2508444 34.7130693,69.9081778 34.7130693,69.9081778 C34.7130693,69.9081778 31.5644088,71.4228 31.8591168,74.3672444 C32.1538248,77.3116889 31.8402555,210.160311 31.8402555,210.160311 C31.8402555,210.160311 34.848635,215.654644 40.7427956,214.747756 C40.7427956,214.747756 37.6518978,213.7066 37.2086569,210.571356" id="Fill-7" fill="#D2D5D4"></path>
                    <path d="M211.375208,0.433422222 C211.375208,0.433422222 219.929993,1.00346667 220.995657,6.4766 C220.996836,6.4766 219.815646,2.65 215.818226,3.64404444 L211.375208,0.433422222" id="Fill-8" fill="#D2D5D4"></path>
                    <path d="M125.265058,44.3633556 C125.265058,45.6636222 124.316099,46.7189111 123.145518,46.7189111 C121.976117,46.7189111 121.027157,45.6636222 121.027157,44.3633556 C121.027157,43.0619111 121.976117,42.0078 123.145518,42.0078 C124.316099,42.0078 125.265058,43.0619111 125.265058,44.3633556" id="Fill-9" fill="#231F1F"></path>
                    <path d="M27.9229964,63.2878889 L24.5468212,61.4611556 C24.0658577,61.1584667 23.4764416,61.3410222 23.2713248,61.8239111 C22.968365,62.3056222 23.1499051,62.8945111 23.6344051,63.0994444 L27.0094015,64.9261778 L27.3972372,65.031 C27.6907664,65.0380667 28.0844964,64.8508 28.2860766,64.5634222 C28.5890365,64.0817111 28.4063175,63.494 27.9229964,63.2878889" id="Fill-10" fill="#000000"></path>
                    <path d="M14.3180949,56.1741111 L10.9419197,54.3473778 C10.4609562,54.0446889 9.87154015,54.2272444 9.66524453,54.7101333 C9.36228467,55.1918444 9.54500365,55.7807333 10.0283248,55.9856667 L13.4045,57.8124 L13.7923358,57.9184 C14.1825292,57.9266444 14.4795949,57.7382 14.6811752,57.4496444 C14.984135,56.9691111 14.8014161,56.3802222 14.3180949,56.1741111" id="Fill-11" fill="#000000"></path>
                    <path d="M21.0716241,59.7298222 L17.6954489,57.9030889 C17.2144854,57.6004 16.6250693,57.7829556 16.4199526,58.2658444 C16.1169927,58.7475556 16.2985328,59.3364444 16.7830328,59.5413778 L20.1580292,61.3681111 L20.5470438,61.4741111 C20.9360584,61.4823556 21.3309672,61.2950889 21.4347044,61.0053556 C21.7376642,60.5248222 21.5549453,59.9359333 21.0716241,59.7298222" id="Fill-12" fill="#000000"></path>
                    <path d="M68.6386788,84.7246222 L65.2636825,82.8978889 C64.7815401,82.5952 64.1921241,82.7777556 63.9870073,83.2606444 C63.6840474,83.7411778 63.8667664,84.3300667 64.3500876,84.535 L67.7262628,86.3617333 L68.1140985,86.4677333 C68.4064489,86.4748 68.8013577,86.2875333 69.0017591,85.9989778 C69.304719,85.5184444 69.1231788,84.9295556 68.6386788,84.7246222" id="Fill-13" fill="#000000"></path>
                    <path d="M35.1315547,67.0061333 L31.7553796,65.1794 C31.2732372,64.8767111 30.685,65.0592667 30.4787044,65.5421556 C30.2735876,66.0250444 30.4563066,66.6139333 30.9396277,66.8188667 L34.3158029,68.6456 L34.7036387,68.7516 C35.0938321,68.7598444 35.487562,68.5737556 35.494635,68.2816667 C35.7975949,67.7999556 35.6148759,67.2110667 35.1315547,67.0061333" id="Fill-14" fill="#000000"></path>
                    <path d="M7.03880657,54.3615111 L6.6509708,54.2566889 L4.91337226,53.3415556 C4.43005109,53.1366222 4.24733212,52.5477333 4.55029197,52.0672 C4.75658759,51.5843111 5.34600365,51.4017556 5.82696715,51.7044444 L7.56338686,52.6184 C8.04670803,52.8233333 8.22942701,53.4122222 7.92646715,53.8939333 C7.72488686,54.1813111 7.429,54.3709333 7.03880657,54.3615111" id="Fill-15" fill="#000000"></path>
                    <path d="M0.417306569,49.7658222 C3.14983942,50.0732222 6.64625547,50.1403556 9.26090511,49.6327333 C9.38114599,49.6091778 9.44833942,49.7528667 9.35756934,49.8353111 L6.02972628,52.8480667 L5.99082482,52.9210889 L5.36958029,57.3012444 C5.35189781,57.4237333 5.19393431,57.4472889 5.14678102,57.3342222 C4.11176642,54.8608889 2.16079927,52.0200889 0.318284672,49.9578 C0.24519708,49.8753556 0.30649635,49.7540444 0.417306569,49.7658222" id="Fill-16" fill="#000000"></path>
                    <path d="M69.150292,92.2270667 C69.150292,90.9409333 69.4261387,89.8373556 69.8858832,88.9186889 C70.3456277,88.0000222 71.081219,87.2650889 72.0018869,86.8976222 C72.9213759,86.5301556 73.6569672,86.5301556 74.1167117,86.9894889 C74.5764562,87.4488222 74.8523029,88.3674889 74.8523029,89.6536222 C74.8523029,90.9409333 74.5764562,92.0433333 74.1167117,92.962 C73.6569672,93.8818444 72.9213759,94.6167778 72.0018869,94.9842444 C71.081219,95.3517111 70.3456277,95.3517111 69.8858832,94.8923778 C69.3341898,94.4330444 69.150292,93.5132 69.150292,92.2270667 L69.150292,92.2270667 Z M74.2086606,89.9292222 C74.2086606,88.8268222 74.0247628,88.0000222 73.6569672,87.5406889 C73.2891715,87.0813556 72.7374781,86.9894889 71.909938,87.3569556 C71.081219,87.7244222 70.5295255,88.2756222 70.1617299,89.1024222 C69.7939343,89.9292222 69.6100365,90.8490667 69.6100365,91.9514667 C69.6100365,93.0538667 69.7939343,93.8818444 70.1617299,94.3411778 C70.5295255,94.8005111 71.081219,94.8923778 71.909938,94.5249111 C72.7374781,94.1574444 73.2891715,93.6050667 73.6569672,92.7782667 C74.0247628,92.0433333 74.2086606,91.0328 74.2086606,89.9292222 L74.2086606,89.9292222 Z" id="Fill-17" fill="#000000"></path>
                    <path d="M76.2327153,94.8005111 L76.0488175,94.7086444 C76.3246642,94.2493111 76.508562,93.8818444 76.6005109,93.6050667 C76.6924599,93.3294667 76.7844088,93.0538667 76.7844088,92.7782667 C76.508562,92.8701333 76.4166131,92.7782667 76.4166131,92.5945333 C76.4166131,92.5026667 76.4166131,92.4108 76.508562,92.2270667 L76.7844088,91.9514667 C76.9683066,91.8596 77.0602555,91.8596 77.1522044,91.9514667 C77.2441533,92.0433333 77.2441533,92.1352 77.2441533,92.3189333 C77.2441533,92.6864 77.1522044,93.0538667 77.0602555,93.4213333 C76.7844088,93.6969333 76.6005109,94.1574444 76.2327153,94.8005111" id="Fill-18" fill="#000000"></path>
                    <path d="M78.6233869,87.9081556 C78.6233869,86.6220222 78.8992336,85.5184444 79.3589781,84.5997778 C79.8199015,83.6811111 80.5554927,82.9461778 81.4749818,82.5787111 C82.3944708,82.1193778 83.130062,82.2100667 83.5898066,82.6705778 C84.0507299,83.2217778 84.3265766,84.0485778 84.3265766,85.3347111 C84.3265766,86.6220222 84.0507299,87.7244222 83.5898066,88.6430889 C83.130062,89.5617556 82.3944708,90.2978667 81.4749818,90.6653333 C80.5554927,91.1246667 79.8199015,91.0328 79.3589781,90.5734667 C78.8992336,90.1141333 78.6233869,89.1942889 78.6233869,87.9081556 M83.7748832,85.6103111 C83.7748832,84.5079111 83.5898066,83.6811111 83.2231898,83.2217778 C82.8542153,82.7624444 82.3025219,82.6705778 81.4749818,83.0380444 C80.6474416,83.4055111 80.0957482,83.9567111 79.7279526,84.7835111 C79.3589781,85.6103111 79.1750803,86.5301556 79.1750803,87.6325556 C79.1750803,88.7349556 79.3589781,89.5617556 79.7279526,90.0222667 C80.0957482,90.4816 80.6474416,90.5734667 81.4749818,90.206 C82.3025219,89.8373556 82.8542153,89.2861556 83.2231898,88.4593556 C83.5898066,87.6325556 83.7748832,86.7138889 83.7748832,85.6103111" id="Fill-19" fill="#000000"></path>
                    <path d="M140.431912,114.9252 L138.500985,114.006533 L138.500985,115.935733 L138.040062,115.752 L138.040062,113.8228 L136.109135,112.902956 L136.109135,112.351756 L138.040062,113.270422 L138.040062,111.341222 L138.500985,111.524956 L138.500985,113.454156 L140.431912,114.374 L140.431912,114.9252" id="Fill-20" fill="#000000"></path>
                    <path d="M146.962642,113.5472 L142.270891,118.141711 L147.14654,120.346511 L147.14654,120.805844 L141.627248,118.233578 L141.627248,117.866111 L146.317821,113.270422 L141.719197,111.157489 L141.719197,110.698156 L146.962642,113.086689 L146.962642,113.5472" id="Fill-21" fill="#000000"></path>
                    <path d="M75.1906277,139.737444 L72.6207737,140.646689 L72.6207737,101.274756 C72.6207737,100.722378 72.2529781,100.354911 71.7012847,100.354911 C71.1495912,100.354911 70.7806168,100.722378 70.7806168,101.274756 L70.7806168,140.646689 L68.2355182,139.746867 C67.9749964,139.653822 67.7498394,139.9518 67.9184124,140.172044 C69.2882153,141.954022 70.5578175,144.450911 71.4442993,146.5874 C71.5409635,146.819422 71.8616058,146.819422 71.9582701,146.5874 C72.850646,144.448556 74.1296788,141.989356 75.5100912,140.162622 C75.6751277,139.942378 75.4499708,139.645578 75.1906277,139.737444" id="Fill-22" fill="#000000"></path>
                    <path d="M125.057584,68.4677556 L124.528288,67.8564889 L87.7958796,82.1594222 C87.3196314,82.2960444 87.0815073,82.8260444 87.3102007,83.3112889 C87.4646277,83.6033778 87.7216131,83.8142 88.0870511,83.8507111 L88.4630985,83.7953556 L125.14246,69.5148 L125.125956,68.6456 L125.057584,68.4677556" id="Fill-23" fill="#000000"></path>
                    <path d="M130.271558,66.2617778 C127.950438,66.2111333 125.174288,65.9178667 122.985197,65.2995333 C122.71996,65.2241556 122.525453,65.5421556 122.705814,65.7506222 L124.528288,67.8564889 L125.057584,68.4677556 L125.125956,68.6456 L125.194328,72.1706889 C125.199044,72.4474667 125.559766,72.5522889 125.705942,72.3167333 C126.907172,70.3769333 128.728467,68.3099333 130.45192,66.7470222 C130.641712,66.5750667 130.527365,66.2676667 130.271558,66.2617778" id="Fill-24" fill="#000000"></path>
                    <path d="M150.180854,128.433133 L149.813058,128.341267 L85.7058102,96.3622444 C85.2460657,96.1785111 85.0621679,95.6273111 85.3380146,95.1679778 C85.5219124,94.7086444 86.0736058,94.5249111 86.5333504,94.8005111 L150.641777,126.779533 C151.101522,126.963267 151.28542,127.514467 151.009573,127.9738 C150.917624,128.157533 150.549828,128.433133 150.180854,128.433133" id="Fill-25" fill="#000000"></path>
                    <path d="M154.372781,129.835867 C152.103529,129.661556 149.3875,129.676867 147.183084,130.053756 C146.881303,130.105578 146.699763,129.736933 146.922562,129.527289 C147.797255,128.699311 149.132872,127.437911 149.461766,127.1258 L149.551358,126.943244 L149.955697,123.570089 C149.992241,123.265044 150.401296,123.189667 150.536861,123.466444 C151.544763,125.511067 153.155047,127.636956 154.629766,129.322356 C154.814843,129.534356 154.652164,129.857067 154.372781,129.835867" id="Fill-26" fill="#000000"></path>
                    <path d="M123.145518,46.7189111 C121.976117,46.7189111 121.027157,45.6636222 121.027157,44.3633556 C121.027157,43.0619111 121.976117,42.0078 123.145518,42.0078 C124.316099,42.0078 125.265058,43.0619111 125.265058,44.3633556 C125.265058,45.6636222 124.316099,46.7189111 123.145518,46.7189111 M216.966409,3.48151111 L216.936938,3.48151111 C216.590361,3.49328889 216.219029,3.54393333 215.818226,3.64404444 L39.8669234,72.2178 L49.0641715,75.7640889 L210.566529,14.7917111 C211.089931,14.5938444 211.620405,14.5019778 212.139091,14.5019778 C214.418953,14.5019778 216.446544,16.2851333 216.446544,18.6772 L216.446544,138.438356 C216.446544,139.041378 216.312157,139.6232 216.06696,140.150844 L221.161872,142.115378 L221.161872,10.3361778 C221.161872,4.37308889 218.536613,3.48151111 216.966409,3.48151111" id="Fill-27" fill="#1A1A1A"></path>
                    <path d="M212.139091,14.5019778 C211.620405,14.5019778 211.089931,14.5938444 210.566529,14.7917111 L49.0641715,75.7640889 L55.1339781,78.1043333 C55.6149416,77.5472444 56.2326496,77.1020444 56.9493796,76.8229111 L207.499208,18.1330667 C208.057974,17.914 208.626172,17.8127111 209.180223,17.8127111 C211.619226,17.8127111 213.787099,19.7819556 213.787099,22.4248889 L213.787099,137.103933 C213.787099,137.809422 213.626777,138.487822 213.334427,139.096733 L216.06696,140.150844 C216.312157,139.6232 216.446544,139.041378 216.446544,138.438356 L216.446544,18.6772 C216.446544,16.2851333 214.418953,14.5019778 212.139091,14.5019778" id="Fill-28" fill="#393637"></path>
                    <path d="M88.0870511,83.8507111 C87.7216131,83.8142 87.4646277,83.6033778 87.3102007,83.3112889 C87.0815073,82.8260444 87.3196314,82.2960444 87.7958796,82.1594222 L124.528288,67.8564889 L125.057584,68.4677556 L125.125956,68.6456 L125.14246,69.5148 L88.4630985,83.7953556 L88.0870511,83.8507111 M125.476069,72.4462889 C125.335788,72.4462889 125.196686,72.3414667 125.194328,72.1706889 L125.125956,68.6456 L125.057584,68.4677556 L124.528288,67.8564889 L122.705814,65.7506222 C122.544314,65.5633556 122.684595,65.2877556 122.907394,65.2877556 C122.93215,65.2877556 122.958084,65.2912889 122.985197,65.2995333 C125.174288,65.9178667 127.950438,66.2111333 130.271558,66.2617778 C130.527365,66.2676667 130.641712,66.5750667 130.45192,66.7470222 C128.728467,68.3099333 126.907172,70.3769333 125.705942,72.3167333 C125.649358,72.4062444 125.563303,72.4462889 125.476069,72.4462889 M209.180223,17.8127111 C208.626172,17.8127111 208.057974,17.914 207.499208,18.1330667 L56.9493796,76.8229111 C56.2326496,77.1020444 55.6149416,77.5472444 55.1339781,78.1043333 L78.6552153,87.1720444 C78.7389124,86.1956667 78.9900036,85.3382444 79.3589781,84.5997778 C79.8199015,83.6811111 80.5554927,82.9461778 81.4749818,82.5787111 C81.8899307,82.3714222 82.2659781,82.2760222 82.5972299,82.2760222 C83.0015693,82.2760222 83.3375365,82.4173556 83.5898066,82.6705778 C84.0507299,83.2217778 84.3265766,84.0485778 84.3265766,85.3347111 C84.3265766,86.6220222 84.0507299,87.7244222 83.5898066,88.6430889 C83.5296861,88.7655778 83.4636715,88.8845333 83.3929416,88.9987778 L146.169288,113.202111 L141.719197,111.157489 L141.719197,110.698156 L146.962642,113.086689 L146.962642,113.508333 L213.334427,139.096733 C213.626777,138.487822 213.787099,137.809422 213.787099,137.103933 L213.787099,22.4248889 C213.787099,19.7819556 211.619226,17.8127111 209.180223,17.8127111" id="Fill-29" fill-opacity="0.155797101" fill="#FFFFFF"></path>
                    <path d="M216.936938,3.48151111 C216.282686,3.48622222 215.818226,3.64404444 215.818226,3.64404444 C216.219029,3.54393333 216.590361,3.49328889 216.936938,3.48151111" id="Fill-30" fill="#D7D9D8"></path>
                    <path d="M82.3744307,82.8107333 C82.1174453,82.8107333 81.8203796,82.8837556 81.4749818,83.0380444 C80.6474416,83.4055111 80.0957482,83.9567111 79.7279526,84.7835111 C79.3884489,85.5455333 79.2057299,86.3852889 79.1786168,87.3746222 L83.0204307,88.8550889 C83.0935182,88.7314222 83.1607117,88.5995111 83.2231898,88.4593556 C83.5898066,87.6325556 83.7748832,86.7138889 83.7748832,85.6103111 C83.7748832,84.5079111 83.5898066,83.6811111 83.2231898,83.2217778 C83.0086423,82.9532444 82.7316168,82.8107333 82.3744307,82.8107333" id="Fill-31" fill="#D7D9D8"></path>
                    <path d="M123.145518,42.0078 C121.976117,42.0078 121.027157,43.0619111 121.027157,44.3633556 C121.027157,45.6636222 121.976117,46.7189111 123.145518,46.7189111 C124.316099,46.7189111 125.265058,45.6636222 125.265058,44.3633556 C125.265058,43.0619111 124.316099,42.0078 123.145518,42.0078" id="Fill-32" fill="#393637"></path>
                    <path d="M82.5972299,82.2760222 C82.2659781,82.2760222 81.8899307,82.3714222 81.4749818,82.5787111 C80.5554927,82.9461778 79.8199015,83.6811111 79.3589781,84.5997778 C78.9900036,85.3382444 78.7389124,86.1956667 78.6552153,87.1720444 L79.1786168,87.3746222 C79.2057299,86.3852889 79.3884489,85.5455333 79.7279526,84.7835111 C80.0957482,83.9567111 80.6474416,83.4055111 81.4749818,83.0380444 C81.8203796,82.8837556 82.1174453,82.8107333 82.3744307,82.8107333 C82.7316168,82.8107333 83.0086423,82.9532444 83.2231898,83.2217778 C83.5898066,83.6811111 83.7748832,84.5079111 83.7748832,85.6103111 C83.7748832,86.7138889 83.5898066,87.6325556 83.2231898,88.4593556 C83.1607117,88.5995111 83.0935182,88.7314222 83.0204307,88.8550889 L83.3929416,88.9987778 C83.4636715,88.8845333 83.5296861,88.7655778 83.5898066,88.6430889 C84.0507299,87.7244222 84.3265766,86.6220222 84.3265766,85.3347111 C84.3265766,84.0485778 84.0507299,83.2217778 83.5898066,82.6705778 C83.3375365,82.4173556 83.0015693,82.2760222 82.5972299,82.2760222" id="Fill-33" fill="#1A1A1A"></path>
                    <path d="M141.719197,110.698156 L141.719197,111.157489 L146.169288,113.202111 L146.962642,113.508333 L146.962642,113.086689 L141.719197,110.698156" id="Fill-34" fill="#1A1A1A"></path>
                    <path d="M124.528288,67.8564889 L87.7958796,82.1594222 C87.3196314,82.2960444 87.0815073,82.8260444 87.3102007,83.3112889 C87.4646277,83.6033778 87.7216131,83.8142 88.0870511,83.8507111 L88.4630985,83.7953556 L125.14246,69.5148 L125.125956,68.6456 L125.057584,68.4677556 L124.528288,67.8564889" id="Fill-35" fill="#1A1A1A"></path>
                    <path d="M122.907394,65.2877556 C122.684595,65.2877556 122.544314,65.5633556 122.705814,65.7506222 L124.528288,67.8564889 L125.057584,68.4677556 L125.125956,68.6456 L125.194328,72.1706889 C125.196686,72.3414667 125.335788,72.4462889 125.476069,72.4462889 C125.563303,72.4462889 125.649358,72.4062444 125.705942,72.3167333 C126.907172,70.3769333 128.728467,68.3099333 130.45192,66.7470222 C130.641712,66.5750667 130.527365,66.2676667 130.271558,66.2617778 C127.950438,66.2111333 125.174288,65.9178667 122.985197,65.2995333 C122.958084,65.2912889 122.93215,65.2877556 122.907394,65.2877556" id="Fill-36" fill="#1A1A1A"></path>
                    <path d="M294.742215,239.709578 L248.754796,261.121578 C233.578511,268.196489 221.161872,261.580911 221.161872,246.4182 L221.161872,182.091511 C221.161872,166.929978 233.578511,148.734489 248.754796,141.6584 L294.742215,120.247578 C309.9185,113.171489 322.335139,119.788244 322.335139,134.949778 L322.335139,199.276467 C322.335139,214.531044 309.9185,232.725356 294.742215,239.709578" id="Fill-37" fill="#5EB4FF"></path>
                    <path d="M267.149292,73.5651778 C286.199219,73.5651778 301.640741,88.9928889 301.640741,108.025778 C301.640741,127.057489 286.199219,142.4852 267.149292,142.4852 C248.100544,142.4852 232.659022,127.057489 232.659022,108.025778 C232.659022,88.9928889 248.100544,73.5651778 267.149292,73.5651778" id="Fill-38" fill="#5EB4FF"></path>
                </g>
            </g>
        </g>
    </g>
</svg>